<svg width="28" height="28" viewBox="0 0 28 28" fill="none" xmlns="http://www.w3.org/2000/svg">
<g clip-path="url(#clip0_419_5804)">
<path d="M18.168 15.1328H9.27344C8.85156 15.1328 8.53516 15.4492 8.53516 15.8477C8.53516 16.2578 8.85156 16.5742 9.27344 16.5742H18.168C18.5781 16.5742 18.8828 16.2578 18.8828 15.8477C18.8828 15.4492 18.5781 15.1328 18.168 15.1328ZM18.168 19.2227H9.27344C8.85156 19.2227 8.53516 19.5508 8.53516 19.9609C8.53516 20.3594 8.85156 20.6641 9.27344 20.6641H18.168C18.5781 20.6641 18.8828 20.3594 18.8828 19.9609C18.8828 19.5508 18.5781 19.2227 18.168 19.2227ZM7.63281 26.125H20.0781C22.5039 26.125 23.7109 24.8945 23.7109 22.457V11.8164C23.7109 10.3047 23.5352 9.64844 22.5977 8.6875L16.1406 2.11328C15.25 1.19922 14.5117 1 13.1992 1H7.63281C5.21875 1 4 2.24219 4 4.67969V22.457C4 24.9062 5.20703 26.125 7.63281 26.125ZM7.71484 24.2383C6.50781 24.2383 5.88672 23.5938 5.88672 22.4219V4.71484C5.88672 3.55469 6.50781 2.88672 7.72656 2.88672H12.9414V9.69531C12.9414 11.1719 13.6797 11.8984 15.1445 11.8984H21.8242V22.4219C21.8242 23.5938 21.2031 24.2383 19.9844 24.2383H7.71484ZM15.3555 10.1289C14.8867 10.1289 14.7109 9.94141 14.7109 9.47266V3.25L21.4609 10.1289H15.3555Z" fill="#C67979"/>
</g>
<defs>
<clipPath id="clip0_419_5804">
<rect width="19.7109" height="25.1367" fill="white" transform="translate(4 1)"/>
</clipPath>
</defs>
</svg>
