<svg width="28" height="28" viewBox="0 0 28 28" fill="none" xmlns="http://www.w3.org/2000/svg">
<path d="M11.5547 26.7017L22.207 13.0025C22.4062 12.7564 22.5117 12.522 22.5117 12.2525C22.5117 11.8071 22.1602 11.4673 21.668 11.4673H15.0469L18.5391 2.35011C19.0078 1.14308 17.7188 0.48683 16.957 1.49464L6.30469 15.1821C6.10547 15.44 6 15.6743 6 15.9321C6 16.3892 6.35156 16.729 6.84375 16.729H13.4648L9.97266 25.8345C9.50391 27.0415 10.793 27.6978 11.5547 26.7017ZM12.2461 23.5493L16.1719 14.9829H8.92969L16.582 4.82277L16.2539 4.64699L12.3398 13.2134H19.5703L11.918 23.3735L12.2461 23.5493Z" fill="#CC4E4E"/>
</svg>
