<svg width="28" height="28" viewBox="0 0 28 28" fill="none" xmlns="http://www.w3.org/2000/svg">
<path d="M6.40625 23.8633C6.875 23.8633 7.27344 23.6758 7.74219 23.4062L21.4062 15.5078C22.3789 14.9336 22.7188 14.5586 22.7188 13.9375C22.7188 13.3164 22.3789 12.9414 21.4062 12.3789L7.74219 4.46875C7.27344 4.19922 6.875 4.02344 6.40625 4.02344C5.53906 4.02344 5 4.67969 5 5.69922V22.1758C5 23.1953 5.53906 23.8633 6.40625 23.8633ZM7.00391 21.625C6.93359 21.625 6.88672 21.5781 6.88672 21.4844V6.39062C6.88672 6.29688 6.93359 6.25 7.00391 6.25C7.05078 6.25 7.09766 6.27344 7.14453 6.30859L20.1172 13.8086C20.1758 13.8438 20.2227 13.8789 20.2227 13.9375C20.2227 13.9961 20.1758 14.043 20.1172 14.0664L7.14453 21.5781C7.09766 21.6016 7.05078 21.625 7.00391 21.625Z" fill="black" fill-opacity="0.85"/>
</svg>
