<svg width="28" height="28" viewBox="0 0 28 28" fill="none" xmlns="http://www.w3.org/2000/svg">
<path d="M4 20.5117C4 22.1406 4.98438 23.1016 6.625 23.1016H20.4648C22.1172 23.1016 23.0898 22.1406 23.0898 20.5117V6.58984C23.0898 4.96094 22.1172 4 20.4648 4H6.625C4.98438 4 4 4.96094 4 6.58984V20.5117ZM5.88672 20.0664V7.03516C5.88672 6.32031 6.30859 5.88672 7.01172 5.88672H20.0781C20.793 5.88672 21.2031 6.32031 21.2031 7.03516V20.0664C21.2031 20.7812 20.793 21.2148 20.0781 21.2148H7.01172C6.30859 21.2148 5.88672 20.7812 5.88672 20.0664Z" fill="black" fill-opacity="0.85"/>
</svg>
