<svg width="28" height="28" viewBox="0 0 28 28" fill="none" xmlns="http://www.w3.org/2000/svg">
<g clip-path="url(#clip0_407_4552)">
<path d="M2.84375 15.8901H8.03516C8.5625 15.8901 8.87891 15.6558 8.99609 15.187L11.2578 4.78079H10.3672L13.8359 25.6167C13.9766 26.4605 15.2773 26.4487 15.4414 25.6167L18.8047 9.83157L18.0664 9.81985L19.1211 15.0933C19.2266 15.6323 19.5312 15.8901 20.082 15.8901H24.6289C25.0977 15.8901 25.4727 15.5269 25.4727 15.0698C25.4727 14.6011 25.1094 14.2378 24.6289 14.2378H19.0977L20.7852 15.6089L19.1328 8.27298C18.957 7.46438 17.75 7.46438 17.5508 8.30813L14.1289 23.6011H14.9609L11.5273 2.77688C11.3984 1.95657 10.2031 1.93314 10.0156 2.77688L7.23828 15.6089L8.92578 14.2378H2.84375C2.36328 14.2378 2 14.6128 2 15.0698C2 15.5269 2.36328 15.8901 2.84375 15.8901Z" fill="#CC4E4E"/>
</g>
<defs>
<clipPath id="clip0_407_4552">
<rect width="23.4727" height="25.2451" fill="white" transform="translate(2 1)"/>
</clipPath>
</defs>
</svg>
